<svg width="447" height="448" xmlns="http://www.w3.org/2000/svg" xmlns:xlink="http://www.w3.org/1999/xlink" xml:space="preserve" overflow="hidden"><g transform="translate(-640 -142)"><path d="M144.344 144.344 93.125 144.344 93.125 111.75 144.344 111.75 144.344 144.344ZM214.188 111.75 214.188 144.344 162.969 144.344 162.969 111.75 214.188 111.75ZM284.031 111.75 284.031 144.344 232.812 144.344 232.812 111.75 284.031 111.75ZM353.875 111.75 353.875 144.344 302.656 144.344 302.656 111.75 353.875 111.75ZM353.875 195.562 302.656 195.562 302.656 162.969 353.875 162.969 353.875 195.562ZM353.875 235.141 302.656 239.797 302.656 214.188 353.875 214.188 353.875 235.141ZM144.344 214.188 144.344 253.766 93.125 258.422 93.125 214.188 144.344 214.188ZM144.344 195.562 93.125 195.562 93.125 162.969 144.344 162.969 144.344 195.562ZM214.188 195.562 162.969 195.562 162.969 162.969 214.188 162.969 214.188 195.562ZM232.812 195.562 232.812 162.969 284.031 162.969 284.031 195.562 232.812 195.562ZM214.188 247.713 162.969 252.369 162.969 214.188 214.188 214.188 214.188 247.713ZM232.812 214.188 284.031 214.188 284.031 241.194 232.812 245.85 232.812 214.188ZM381.812 260.75 381.812 83.8125 93.125 83.8125 93.125 79.1562C93.125 55.875 74.5 37.25 51.2188 37.25 43.3031 37.25 37.25 43.3031 37.25 51.2188 37.25 59.1344 43.3031 65.1875 51.2188 65.1875 59.1344 65.1875 65.1875 71.2406 65.1875 79.1562L65.1875 311.969C65.1875 335.25 83.8125 353.875 107.094 353.875L121.062 353.875 325.938 353.875 367.844 353.875C375.759 353.875 381.812 347.822 381.812 339.906 381.812 331.991 375.759 325.938 367.844 325.938L107.094 325.938C99.1781 325.938 93.125 319.884 93.125 311.969L93.125 286.359 381.812 260.75Z" transform="matrix(1 0 0 1.00224 640 142)"/><path d="M149 381.812C149 397.242 136.492 409.75 121.062 409.75 105.633 409.75 93.125 397.242 93.125 381.812 93.125 366.383 105.633 353.875 121.062 353.875 136.492 353.875 149 366.383 149 381.812Z" transform="matrix(1 0 0 1.00224 640 142)"/><path d="M353.875 381.812C353.875 397.242 341.367 409.75 325.938 409.75 310.508 409.75 298 397.242 298 381.812 298 366.383 310.508 353.875 325.938 353.875 341.367 353.875 353.875 366.383 353.875 381.812Z" transform="matrix(1 0 0 1.00224 640 142)"/></g></svg>